<svg viewBox="0 0 24 24" class=""><path fill="#000000" fill-rule="evenodd" d="M2.37530495,9.69975604 L11.375305,2.49975604 C11.7405236,2.20758112 12.2594764,2.20758112 12.624695,2.49975604 L21.624695,9.69975604 C21.8619103,9.88952822 22,10.1768411 22,10.4806248 L22,21 C22,21.5522847 21.5522847,22 21,22 L3,22 C2.44771525,22 2,21.5522847 2,21 L2,10.4806248 C2,10.1768411 2.13808972,9.88952822 2.37530495,9.69975604 Z M16,20 L20,20 L20,10.9612497 L12,4.56124969 L4,10.9612497 L4,20 L8,20 L8,16 C8,13.790861 9.790861,12 12,12 C14.209139,12 16,13.790861 16,16 L16,20 L16,20 Z M14,20 L14,16 C14,14.8954305 13.1045695,14 12,14 C10.8954305,14 10,14.8954305 10,16 L10,20 L14,20 L14,20 Z"></path></svg>