<svg viewBox="0 0 24 24" class=""><path fill="#000000" fill-rule="evenodd" d="M19,10.5857864 L19,6 C19,5.44771525 18.5522847,5 18,5 L6,5 C5.44771525,5 5,5.44771525 5,6 L5,14.5857864 L7.29289322,12.2928932 C7.6299576,11.9558288 8.15807761,11.9035347 8.5547002,12.1679497 L10.807036,13.6695069 L15.2317787,8.3598156 C15.6082272,7.9080774 16.2913058,7.87709226 16.7071068,8.29289322 L19,10.5857864 Z M19,13.4142136 L16.0671984,10.4814119 L11.7682213,15.6401844 C11.4410564,16.0327823 10.8705173,16.1155287 10.4452998,15.8320503 L8.12741788,14.2867957 L5,17.4142136 L5,18 C5,18.5522847 5.44771525,19 6,19 L18,19 C18.5522847,19 19,18.5522847 19,18 L19,13.4142136 Z M6,3 L18,3 C19.6568542,3 21,4.34314575 21,6 L21,18 C21,19.6568542 19.6568542,21 18,21 L6,21 C4.34314575,21 3,19.6568542 3,18 L3,6 C3,4.34314575 4.34314575,3 6,3 Z M9.5,10 C8.67157288,10 8,9.32842712 8,8.5 C8,7.67157288 8.67157288,7 9.5,7 C10.3284271,7 11,7.67157288 11,8.5 C11,9.32842712 10.3284271,10 9.5,10 Z"></path></svg>