<svg viewBox="0 0 24 24" class=""><path fill="#000000" fill-rule="evenodd" d="M7.8458278,2 L16.1541722,2 C17.4914503,2 17.9763797,2.13923842 18.4652686,2.40069906 C18.9541574,2.66215969 19.3378403,3.04584256 19.5993009,3.53473144 C19.8607616,4.02362033 20,4.50854969 20,5.8458278 L20,21 C20,21.5522847 19.5522847,22 19,22 C18.7836298,22 18.5730962,21.9298221 18.4,21.8 L12,17 L5.6,21.8 C5.1581722,22.1313708 4.53137085,22.0418278 4.2,21.6 C4.07017787,21.4269038 4,21.2163702 4,21 L4,5.8458278 C4,4.50854969 4.13923842,4.02362033 4.40069906,3.53473144 C4.66215969,3.04584256 5.04584256,2.66215969 5.53473144,2.40069906 C6.02362033,2.13923842 6.50854969,2 7.8458278,2 Z"></path></svg>