<svg viewBox="0 0 24 24" class=""><path fill="#000000" fill-rule="evenodd" d="M10.8,15.4 C11.5111111,14.8666667 12.4888889,14.8666667 13.2,15.4 L18,19 L18,5 C18,4.44771525 17.5522847,4 17,4 L7,4 C6.44771525,4 6,4.44771525 6,5 L6,19 L10.8,15.4 Z M7,2 L17,2 C18.6568542,2 20,3.34314575 20,5 L20,21 C20,21.5522847 19.5522847,22 19,22 C18.7836298,22 18.5730962,21.9298221 18.4,21.8 L12,17 L5.6,21.8 C5.1581722,22.1313708 4.53137085,22.0418278 4.2,21.6 C4.07017787,21.4269038 4,21.2163702 4,21 L4,5 C4,3.34314575 5.34314575,2 7,2 Z"></path></svg>